name C:/MyDriveSym/Projects/mobilecap/Data\Session20210830_0002\mocap\ForceDataProcessed\walkingTS2_forces.mot
datacolumns 19
datarows 27
range 0.69950000 0.71250000
endheader 
time	R_ground_force_vx	R_ground_force_vy	R_ground_force_vz	R_ground_force_px	R_ground_force_py	R_ground_force_pz	R_ground_torque_x	R_ground_torque_y	R_ground_torque_z	L_ground_force_vx	L_ground_force_vy	L_ground_force_vz	L_ground_force_px	L_ground_force_py	L_ground_force_pz	L_ground_torque_x	L_ground_torque_y	L_ground_torque_z	
          0.69950000	         19.92354500	         74.87863500	         -4.85958700	          0.36284800	          0.00600000	         -0.16401000	          0.00000000	         -0.52393600	          0.00000000	       -131.62808700	        849.26221900	         30.60276100	          0.87152800	          0.00600000	         -0.31149000	          0.00000000	          2.86892800	          0.00000000	
          0.70000000	         19.56961800	         73.38015600	         -4.76359300	          0.36361400	          0.00600000	         -0.16403100	          0.00000000	         -0.51418200	          0.00000000	       -131.62723300	        850.25988700	         30.78133300	          0.87168600	          0.00600000	         -0.31156100	          0.00000000	          2.88554400	          0.00000000	
          0.70050000	         19.21873200	         71.89648500	         -4.66851600	          0.36439800	          0.00600000	         -0.16405100	          0.00000000	         -0.50449400	          0.00000000	       -131.62202300	        851.23880200	         30.95811200	          0.87184300	          0.00600000	         -0.31163300	          0.00000000	          2.90209200	          0.00000000	
          0.70100000	         18.87088900	         70.42758700	         -4.57435200	          0.36520200	          0.00600000	         -0.16407200	          0.00000000	         -0.49487200	          0.00000000	       -131.61247100	        852.19895800	         31.13308500	          0.87199900	          0.00600000	         -0.31170400	          0.00000000	          2.91857000	          0.00000000	
          0.70150000	         18.52609200	         68.97342700	         -4.48109800	          0.36602600	          0.00600000	         -0.16409200	          0.00000000	         -0.48531500	          0.00000000	       -131.59859100	        853.14035200	         31.30624200	          0.87215500	          0.00600000	         -0.31177500	          0.00000000	          2.93497700	          0.00000000	
          0.70200000	         18.18434600	         67.53396700	         -4.38875000	          0.36687200	          0.00600000	         -0.16411200	          0.00000000	         -0.47582600	          0.00000000	       -131.58039700	        854.06298100	         31.47757100	          0.87231100	          0.00600000	         -0.31184700	          0.00000000	          2.95131100	          0.00000000	
          0.70250000	         17.84565000	         66.10916900	         -4.29730600	          0.36773900	          0.00600000	         -0.16413100	          0.00000000	         -0.46640300	          0.00000000	       -131.55790200	        854.96684200	         31.64706100	          0.87246600	          0.00600000	         -0.31191700	          0.00000000	          2.96757200	          0.00000000	
          0.70300000	         17.51000800	         64.69899300	         -4.20676300	          0.36863100	          0.00600000	         -0.16415100	          0.00000000	         -0.45704700	          0.00000000	       -131.53112200	        855.85193600	         31.81470200	          0.87262000	          0.00600000	         -0.31198800	          0.00000000	          2.98375900	          0.00000000	
          0.70350000	         17.17741900	         63.30339700	         -4.11711600	          0.36954600	          0.00600000	         -0.16417100	          0.00000000	         -0.44775800	          0.00000000	       -131.50007100	        856.71826400	         31.98048400	          0.87277400	          0.00600000	         -0.31205900	          0.00000000	          2.99986900	          0.00000000	
          0.70400000	         16.84788500	         61.92234000	         -4.02836400	          0.37048700	          0.00600000	         -0.16419000	          0.00000000	         -0.43853700	          0.00000000	       -131.46476600	        857.56582800	         32.14439600	          0.87292800	          0.00600000	         -0.31212900	          0.00000000	          3.01590200	          0.00000000	
          0.70450000	         16.52140500	         60.55577700	         -3.94050300	          0.37145500	          0.00600000	         -0.16420900	          0.00000000	         -0.42938400	          0.00000000	       -131.42522200	        858.39463200	         32.30643000	          0.87308100	          0.00600000	         -0.31220000	          0.00000000	          3.03185700	          0.00000000	
          0.70500000	         16.19797800	         59.20366500	         -3.85353000	          0.37245000	          0.00600000	         -0.16422800	          0.00000000	         -0.42029900	          0.00000000	       -131.38145500	        859.20468100	         32.46657600	          0.87323400	          0.00600000	         -0.31227000	          0.00000000	          3.04773200	          0.00000000	
          0.70550000	         15.87760200	         57.86595700	         -3.76744100	          0.37347500	          0.00600000	         -0.16424700	          0.00000000	         -0.41128200	          0.00000000	       -131.33348100	        859.99598100	         32.62482500	          0.87338600	          0.00600000	         -0.31234000	          0.00000000	          3.06352700	          0.00000000	
          0.70600000	         15.56027600	         56.54260700	         -3.68223400	          0.37453100	          0.00600000	         -0.16426500	          0.00000000	         -0.40233300	          0.00000000	       -131.28131800	        860.76853900	         32.78116900	          0.87353800	          0.00600000	         -0.31241000	          0.00000000	          3.07924100	          0.00000000	
          0.70650000	         15.24599600	         55.23356600	         -3.59790600	          0.37561900	          0.00600000	         -0.16428400	          0.00000000	         -0.39345300	          0.00000000	       -131.22498300	        861.52236600	         32.93559900	          0.87368900	          0.00600000	         -0.31247900	          0.00000000	          3.09487200	          0.00000000	
          0.70700000	         14.93476100	         53.93878600	         -3.51445400	          0.37674000	          0.00600000	         -0.16430200	          0.00000000	         -0.38464200	          0.00000000	       -131.16449400	        862.25747000	         33.08810800	          0.87384000	          0.00600000	         -0.31254900	          0.00000000	          3.11041800	          0.00000000	
          0.70750000	         14.62656500	         52.65821600	         -3.43187400	          0.37789800	          0.00600000	         -0.16432000	          0.00000000	         -0.37589900	          0.00000000	       -131.09986700	        862.97386300	         33.23868900	          0.87399100	          0.00600000	         -0.31261800	          0.00000000	          3.12588000	          0.00000000	
          0.70800000	         14.32140400	         51.39180500	         -3.35016400	          0.37909300	          0.00600000	         -0.16433700	          0.00000000	         -0.36722600	          0.00000000	       -131.03112200	        863.67155900	         33.38733300	          0.87414100	          0.00600000	         -0.31268800	          0.00000000	          3.14125700	          0.00000000	
          0.70850000	         14.01927300	         50.13950100	         -3.26932100	          0.38032700	          0.00600000	         -0.16435500	          0.00000000	         -0.35862200	          0.00000000	       -130.95827700	        864.35057100	         33.53403500	          0.87429100	          0.00600000	         -0.31275700	          0.00000000	          3.15654600	          0.00000000	
          0.70900000	         13.72016800	         48.90125100	         -3.18934200	          0.38160300	          0.00600000	         -0.16437200	          0.00000000	         -0.35008700	          0.00000000	       -130.88135100	        865.01091500	         33.67878700	          0.87444000	          0.00600000	         -0.31282600	          0.00000000	          3.17174700	          0.00000000	
          0.70950000	         13.42408100	         47.67700000	         -3.11022400	          0.38292300	          0.00600000	         -0.16438800	          0.00000000	         -0.34162200	          0.00000000	       -130.80036300	        865.65260800	         33.82158400	          0.87458800	          0.00600000	         -0.31289500	          0.00000000	          3.18685900	          0.00000000	
          0.71000000	         13.13100600	         46.46669300	         -3.03196500	          0.38428900	          0.00600000	         -0.16440500	          0.00000000	         -0.33322600	          0.00000000	       -130.71533200	        866.27566700	         33.96241900	          0.87473700	          0.00600000	         -0.31296400	          0.00000000	          3.20188200	          0.00000000	
          0.71050000	         12.84093600	         45.27027300	         -2.95456100	          0.38570500	          0.00600000	         -0.16442100	          0.00000000	         -0.32490000	          0.00000000	       -130.62627800	        866.88011200	         34.10128700	          0.87488500	          0.00600000	         -0.31303200	          0.00000000	          3.21681300	          0.00000000	
          0.71100000	         12.55386200	         44.08768300	         -2.87800900	          0.38717200	          0.00600000	         -0.16443600	          0.00000000	         -0.31664300	          0.00000000	       -130.53322200	        867.46596500	         34.23818300	          0.87503200	          0.00600000	         -0.31310100	          0.00000000	          3.23165200	          0.00000000	
          0.71150000	         12.26977800	         42.91886500	         -2.80230700	          0.38869500	          0.00600000	         -0.16445200	          0.00000000	         -0.30845700	          0.00000000	       -130.43618300	        868.03324600	         34.37310100	          0.87517900	          0.00600000	         -0.31316900	          0.00000000	          3.24639900	          0.00000000	
          0.71200000	         11.98867500	         41.76375800	         -2.72745100	          0.39027500	          0.00600000	         -0.16446600	          0.00000000	         -0.30034000	          0.00000000	       -130.33518300	        868.58198000	         34.50603600	          0.87532600	          0.00600000	         -0.31323800	          0.00000000	          3.26105200	          0.00000000	
          0.71250000	         11.71054300	         40.62230300	         -2.65343900	          0.39191800	          0.00600000	         -0.16448100	          0.00000000	         -0.29229300	          0.00000000	       -130.23024100	        869.11219100	         34.63698500	          0.87547200	          0.00600000	         -0.31330600	          0.00000000	          3.27561000	          0.00000000	
